<svg viewBox="0 0 500 350" width="500" height="350" xmlns="http://www.w3.org/2000/svg">
  <path d="M 0.585 0.846 H 500.585 V 350.378 H 0.585 V 0.846 Z" style="stroke: rgb(0, 0, 0); fill: rgb(91, 88, 88);" transform="matrix(1, 0, 0, 1, 7.105427357601002e-15, 0)"/>
  <path d="M 12.003 11.091 H 489.39 V 338.96 H 12.003 V 11.091 Z" style="fill: rgb(216, 216, 216); stroke: rgb(0, 0, 0);" transform="matrix(1, 0, 0, 1, 7.105427357601002e-15, 0)"/>
  <path d="M 331.416 26.213 L 331.416 39.103 L 487.656 39.103 L 487.656 26.213 L 331.416 26.213 Z M 331.416 299.069 L 331.416 311.958 L 487.656 311.958 L 487.656 299.069 L 331.416 299.069 Z M 470.86 91.443 L 434.535 91.443 L 410.057 211.878 L 384.408 91.443 L 348.212 91.443 L 338.056 271.119 L 365.138 271.119 L 368.653 183.885 C 368.827 177.636 368.936 171.386 368.979 165.136 C 369.022 158.887 369.001 152.898 368.914 147.169 C 368.827 141.44 368.697 136.08 368.523 131.089 C 368.35 126.098 368.133 121.736 367.872 118.004 L 396.256 239.48 L 422.556 239.48 L 448.987 118.004 C 448.813 121.91 448.661 126.272 448.531 131.089 C 448.401 135.906 448.336 141.136 448.336 146.778 C 448.336 152.42 448.401 158.322 448.531 164.485 C 448.661 170.648 448.856 177.028 449.117 183.625 L 453.414 271.119 L 481.016 271.119 L 470.86 91.443 Z M 172.44 26.213 L 172.44 39.103 L 328.68 39.103 L 328.68 26.213 L 172.44 26.213 Z M 172.44 299.069 L 172.44 311.958 L 328.68 311.958 L 328.68 299.069 L 172.44 299.069 Z M 249.388 152.377 C 254.943 152.377 259.978 153.701 264.492 156.348 C 269.005 158.995 272.955 162.749 276.34 167.61 L 276.34 232.71 C 272.955 238.091 268.832 242.692 263.971 246.511 C 259.11 250.33 253.381 252.24 246.784 252.24 C 240.795 252.24 235.674 250.526 231.421 247.097 C 227.168 243.668 223.913 238.287 221.656 230.952 C 219.399 223.617 218.271 214.091 218.271 202.373 C 218.271 185.274 221.005 172.666 226.473 164.55 C 231.942 156.435 239.58 152.377 249.388 152.377 Z M 276.34 75.168 L 276.34 144.955 C 271.913 140.094 266.835 136.384 261.106 133.823 C 255.377 131.262 248.911 129.982 241.707 129.982 C 230.336 129.982 220.614 133.107 212.542 139.357 C 204.469 145.606 198.263 154.178 193.923 165.071 C 189.583 175.964 187.413 188.398 187.413 202.373 C 187.413 216.695 189.258 229.303 192.947 240.196 C 196.636 251.09 202.299 259.553 209.938 265.585 C 217.576 271.618 227.298 274.634 239.103 274.634 C 247.175 274.634 254.466 272.855 260.976 269.296 C 267.486 265.737 273.085 260.703 277.772 254.193 L 279.855 271.119 L 305.505 271.119 L 305.505 78.423 L 276.34 75.168 Z M 13.464 26.213 L 13.464 39.103 L 169.704 39.103 L 169.704 26.213 L 13.464 26.213 Z M 13.464 299.069 L 13.464 311.958 L 169.704 311.958 L 169.704 299.069 L 13.464 299.069 Z M 95.62 152.507 C 101.783 152.507 106.882 154.2 110.919 157.585 C 114.955 160.97 117.993 166.329 120.033 173.664 C 122.072 180.999 123.092 190.525 123.092 202.243 C 123.092 219.516 120.532 232.102 115.411 240.001 C 110.29 247.9 102.825 251.849 93.016 251.849 C 87.287 251.849 82.144 250.525 77.587 247.878 C 73.03 245.231 69.103 241.433 65.804 236.486 L 65.804 172.167 C 69.276 166.872 73.486 162.272 78.434 158.366 C 83.381 154.46 89.11 152.507 95.62 152.507 Z M 103.693 129.982 C 96.141 129.982 88.915 131.761 82.014 135.32 C 75.113 138.879 69.059 144.218 63.851 151.335 L 62.029 133.628 L 36.64 133.628 L 36.64 327.235 L 65.804 323.98 L 65.804 259.401 C 74.658 269.556 86.289 274.634 100.698 274.634 C 112.329 274.634 122.073 271.509 129.928 265.26 C 137.783 259.011 143.707 250.417 147.7 239.48 C 151.693 228.543 153.689 216.088 153.689 202.113 C 153.689 187.53 152.04 174.836 148.742 164.029 C 145.443 153.223 140.148 144.847 132.857 138.901 C 125.566 132.955 115.845 129.982 103.693 129.982 Z" style="text-decoration: underline overline solid rgba(255, 255, 255, 0.9); fill: rgb(54, 54, 54); fill-rule: nonzero;" transform="matrix(1, 0, 0, 1, 7.105427357601002e-15, 0)"/>
</svg>